<?xml version="1.0" standalone="no"?>
<!DOCTYPE svg PUBLIC "-//W3C//DTD SVG 20010904//EN"
 "http://www.w3.org/TR/2001/REC-SVG-20010904/DTD/svg10.dtd">
<svg version="1.0" xmlns="http://www.w3.org/2000/svg"
 width="640.000000pt" height="640.000000pt" viewBox="0 0 640.000000 640.000000"
 preserveAspectRatio="xMidYMid meet">
<metadata>
Created by potrace 1.11, written by Peter Selinger 2001-2013
</metadata>
<g transform="translate(0.000000,640.000000) scale(0.100000,-0.100000)"
fill="#000000" stroke="none">
<path d="M2930 6396 c-3 -2 -23 -7 -45 -10 -84 -11 -151 -19 -175 -21 -14 -1
-32 -4 -40 -7 -8 -3 -46 -11 -85 -18 -178 -32 -447 -113 -620 -188 -44 -19
-95 -41 -112 -48 -18 -8 -36 -14 -39 -13 -4 0 -10 -3 -13 -8 -5 -7 -55 -34
-71 -38 -3 -1 -23 -12 -45 -26 -22 -13 -43 -23 -47 -21 -5 1 -8 -3 -8 -9 0 -5
-4 -8 -9 -5 -5 3 -14 -1 -21 -9 -7 -8 -19 -15 -26 -15 -8 0 -14 -4 -14 -9 0
-5 -13 -14 -30 -20 -16 -5 -30 -15 -30 -21 0 -6 -4 -9 -9 -6 -5 3 -20 -5 -34
-18 -15 -14 -36 -27 -47 -31 -11 -3 -20 -11 -20 -16 0 -5 -5 -9 -10 -9 -14 0
-150 -100 -150 -110 0 -5 -8 -11 -17 -14 -10 -3 -38 -24 -62 -46 -24 -22 -46
-40 -49 -40 -5 0 -301 -299 -347 -350 -78 -87 -260 -345 -321 -455 -6 -11 -21
-38 -34 -60 -41 -72 -140 -275 -144 -295 -1 -3 -13 -34 -28 -70 -25 -62 -37
-92 -44 -115 -36 -111 -47 -142 -52 -155 -7 -19 -10 -30 -15 -55 -3 -11 -13
-49 -22 -85 -9 -36 -19 -76 -21 -90 -3 -14 -7 -33 -10 -42 -8 -26 -14 -59 -20
-103 -3 -22 -7 -51 -10 -65 -3 -14 -8 -45 -10 -70 -3 -25 -8 -65 -12 -90 -9
-59 -9 -583 0 -635 4 -22 9 -66 12 -98 3 -32 8 -61 10 -65 2 -4 7 -29 10 -57
3 -27 8 -59 10 -70 3 -11 12 -51 20 -90 9 -38 20 -85 25 -103 5 -18 10 -35 10
-37 1 -3 1 -6 2 -7 0 -2 2 -11 5 -20 6 -26 10 -41 16 -58 5 -13 16 -44 52
-155 7 -23 19 -53 44 -115 15 -36 27 -67 28 -70 5 -23 98 -214 147 -300 11
-19 25 -44 31 -55 61 -110 242 -366 321 -455 71 -80 344 -350 354 -350 6 0 11
-4 11 -8 0 -15 241 -202 260 -202 6 0 10 -5 10 -11 0 -5 5 -7 10 -4 6 3 10 3
10 -2 0 -10 71 -59 82 -56 4 2 8 -2 8 -8 0 -5 13 -15 30 -20 17 -6 30 -16 30
-22 0 -6 3 -8 6 -4 3 3 14 -2 25 -11 11 -9 22 -15 26 -14 3 2 9 0 12 -5 3 -4
42 -26 86 -48 44 -22 83 -43 86 -48 3 -5 10 -9 15 -9 13 -1 37 -10 139 -56
167 -75 520 -181 659 -198 23 -3 48 -8 56 -11 8 -3 26 -7 40 -8 36 -3 129 -15
175 -23 52 -9 579 -9 625 0 19 4 62 10 95 13 87 9 120 13 120 15 0 1 14 4 30
6 17 3 71 14 120 25 50 12 97 22 107 24 96 20 374 116 491 169 53 24 107 45
111 43 2 -1 12 5 22 14 19 16 41 26 58 27 5 0 12 4 15 9 6 8 27 21 74 45 12 6
29 15 37 20 8 5 23 11 33 14 9 4 17 10 17 14 0 5 10 12 23 16 23 7 120 73 125
86 2 5 7 6 12 3 4 -2 20 7 34 20 15 14 30 25 35 25 7 0 122 90 149 117 7 7 17
13 22 13 12 0 361 348 420 419 64 75 137 175 205 278 32 48 66 100 76 115 11
15 19 29 19 31 0 3 25 48 55 102 30 53 55 98 55 100 0 1 16 38 37 81 20 44 38
84 39 89 2 6 21 55 44 109 33 82 73 200 95 286 2 8 4 16 5 18 3 2 3 2 15 57 4
22 9 45 11 50 8 32 36 164 39 185 2 14 6 39 9 55 2 17 7 55 11 85 3 30 11 80
16 110 10 57 7 547 -4 630 -3 25 -11 79 -17 120 -7 41 -13 89 -15 107 -2 17
-8 49 -14 70 -6 21 -13 56 -17 78 -3 22 -8 43 -11 47 -5 10 -13 43 -19 81 -2
15 -8 35 -13 45 -5 9 -9 19 -9 22 -1 3 -3 12 -6 20 -3 8 -13 42 -22 75 -9 33
-22 74 -29 90 -29 69 -70 170 -71 175 -1 6 -49 113 -67 150 -6 14 -36 67 -64
119 -29 51 -53 95 -53 98 0 2 -8 16 -19 31 -10 15 -36 54 -57 87 -61 94 -133
194 -198 275 -62 77 -386 409 -386 396 0 -4 -12 6 -26 23 -14 17 -31 31 -37
31 -7 0 -18 9 -25 20 -7 11 -16 20 -21 20 -5 0 -25 15 -45 33 -20 19 -49 40
-64 48 -15 8 -31 20 -35 26 -4 7 -14 13 -22 13 -7 0 -15 3 -17 8 -5 12 -121
89 -145 96 -13 4 -23 12 -23 18 0 6 -3 9 -6 5 -3 -3 -15 3 -27 14 -11 10 -27
19 -35 19 -8 0 -26 8 -40 18 -15 10 -45 27 -67 37 -22 11 -48 27 -59 35 -10 8
-20 14 -22 12 -2 -1 -19 4 -37 12 -17 7 -69 30 -115 50 -160 69 -466 162 -632
191 -65 11 -75 13 -75 15 0 2 -16 4 -105 14 -36 4 -78 10 -95 13 -37 7 -589
16 -595 9z"/>
</g>
</svg>
